<?xml version="1.0" encoding="UTF-8" standalone="no"?>
<svg
   xmlns:dc="http://purl.org/dc/elements/1.1/"
   xmlns:cc="http://creativecommons.org/ns#"
   xmlns:rdf="http://www.w3.org/1999/02/22-rdf-syntax-ns#"
   xmlns:svg="http://www.w3.org/2000/svg"
   xmlns="http://www.w3.org/2000/svg"
   xmlns:xlink="http://www.w3.org/1999/xlink"
   xmlns:sodipodi="http://sodipodi.sourceforge.net/DTD/sodipodi-0.dtd"
   xmlns:inkscape="http://www.inkscape.org/namespaces/inkscape"
   width="130.0728"
   height="26.033953"
   version="1.1"
   id="svg90"
   sodipodi:docname="logo.svg"
   inkscape:version="1.0 (4035a4fb49, 2020-05-01)">
  <metadata
     id="metadata94">
    <rdf:RDF>
      <cc:Work
         rdf:about="">
        <dc:format>image/svg+xml</dc:format>
        <dc:type
           rdf:resource="http://purl.org/dc/dcmitype/StillImage" />
        <dc:title />
      </cc:Work>
    </rdf:RDF>
  </metadata>
  <sodipodi:namedview
     inkscape:document-rotation="0"
     pagecolor="#ffffff"
     bordercolor="#666666"
     borderopacity="1"
     objecttolerance="10"
     gridtolerance="10"
     guidetolerance="10"
     inkscape:pageopacity="0"
     inkscape:pageshadow="2"
     inkscape:window-width="1366"
     inkscape:window-height="704"
     id="namedview92"
     showgrid="false"
     inkscape:zoom="5.971223"
     inkscape:cx="45.639089"
     inkscape:cy="28.848684"
     inkscape:window-x="0"
     inkscape:window-y="0"
     inkscape:window-maximized="1"
     inkscape:current-layer="g88" />
  <defs
     id="defs76">
    <linearGradient
       y2="1"
       y1="0"
       x2="0.17503001"
       x1="0.72194999"
       id="a">
      <stop
         id="stop961"
         stop-color="#33D35E"
         offset="0%" />
      <stop
         id="stop963"
         stop-color="#2AB6D9"
         offset="100%" />
    </linearGradient>
    <linearGradient
       inkscape:collect="always"
       id="linearGradient927">
      <stop
         style="stop-color:#000000;stop-opacity:1;"
         offset="0"
         id="stop923" />
      <stop
         style="stop-color:#000000;stop-opacity:0;"
         offset="1"
         id="stop925" />
    </linearGradient>
    <linearGradient
       id="a-1"
       x1="0.72194999"
       x2="0.17503001"
       y1="0"
       y2="1">
      <stop
         offset="0%"
         stop-color="#33D35E"
         id="stop71" />
      <stop
         offset="100%"
         stop-color="#2AB6D9"
         id="stop73" />
    </linearGradient>
    <linearGradient
       inkscape:collect="always"
       xlink:href="#linearGradient927"
       id="linearGradient929"
       x1="36.038784"
       y1="36.379871"
       x2="182.70248"
       y2="36.379871"
       gradientUnits="userSpaceOnUse" />
    <linearGradient
       inkscape:collect="always"
       xlink:href="#a-1"
       id="linearGradient931"
       x1="13.130968"
       y1="0"
       x2="3.18348"
       y2="18.188196"
       gradientTransform="scale(0.92307123,1.08334)"
       gradientUnits="userSpaceOnUse" />
    <linearGradient
       inkscape:collect="always"
       xlink:href="#a-1"
       id="linearGradient937"
       x1="17.993343"
       y1="0"
       x2="4.3623176"
       y2="24.923254"
       gradientTransform="scale(1.264883,0.79058697)"
       gradientUnits="userSpaceOnUse" />
    <linearGradient
       y2="64.090927"
       x2="19.508757"
       y1="36.452103"
       x1="0.98161817"
       gradientTransform="scale(1.264883,0.79058697)"
       gradientUnits="userSpaceOnUse"
       id="linearGradient1021"
       xlink:href="#a-1"
       inkscape:collect="always" />
    <linearGradient
       y2="64.090927"
       x2="19.508757"
       y1="36.452103"
       x1="0.98161817"
       gradientTransform="scale(1.264883,0.79058697)"
       gradientUnits="userSpaceOnUse"
       id="linearGradient1025"
       xlink:href="#a-1"
       inkscape:collect="always" />
  </defs>
  <g
     transform="translate(-1.3574222,2.725547)"
     fill="none"
     fill-rule="evenodd"
     id="g88">
    <g
       fill="url(#a)"
       id="g86"
       style="fill:url(#linearGradient937)">
      <g
         transform="translate(1.3960185,-29.101817)"
         style="fill:url(#linearGradient1021);fill-opacity:1;stroke:none;stroke-opacity:1"
         id="g975">
        <path
           d="m 19.926628,29.093338 h 2.402801 c 0.794399,0 1.433934,0.639535 1.433934,1.433935 v 2.341962 c 0,0.7944 -0.639535,1.433935 -1.433934,1.433935 h -2.402801 c -0.7944,0 -1.433935,-0.639535 -1.433935,-1.433935 v -2.341962 c 0,-0.7944 0.639535,-1.433935 1.433935,-1.433935 z M 4.4016443,29.040348 h 2.4028008 c 0.7943999,0 1.4339349,0.639535 1.4339349,1.433935 v 2.341962 c 0,0.7944 -0.639535,1.433935 -1.4339349,1.433935 H 4.4016443 c -0.7943998,0 -1.4339348,-0.639535 -1.4339348,-1.433935 v -2.341962 c 0,-0.7944 0.639535,-1.433935 1.4339348,-1.433935 z M 16.385029,47.964432 h 2.269348 c 0.655083,0 1.182461,0.527378 1.182461,1.182462 v 1.901044 c 0,0.655084 -0.527378,1.182462 -1.182461,1.182462 h -2.269348 c -0.655084,0 -1.182462,-0.527378 -1.182462,-1.182462 v -1.901044 c 0,-0.655084 0.527378,-1.182462 1.182462,-1.182462 z m 6.906695,-0.01706 h 2.269348 c 0.655084,0 1.182462,0.527378 1.182462,1.182462 v 1.901045 c 0,0.655084 -0.527378,1.182462 -1.182462,1.182462 h -2.269348 c -0.655084,0 -1.182462,-0.527378 -1.182462,-1.182462 v -1.901045 c 0,-0.655084 0.527378,-1.182462 1.182462,-1.182462 z M 4.1622158,44.120987 h 2.4028008 c 0.7943999,0 1.4339348,0.639535 1.4339348,1.433935 v 2.341962 c 0,0.7944 -0.6395349,1.433935 -1.4339348,1.433935 H 4.1622158 c -0.7943999,0 -1.4339348,-0.639535 -1.4339348,-1.433935 v -2.341962 c 0,-0.7944 0.6395349,-1.433935 1.4339348,-1.433935 z m 11.9652662,-2.96851 h 9.953993 c 0.479099,0 0.8648,0.385701 0.8648,0.8648 v 2.059358 c 0,0.479099 -0.385701,0.864799 -0.8648,0.864799 h -9.953993 c -0.479099,0 -0.8648,-0.3857 -0.8648,-0.864799 v -2.059358 c 0,-0.479099 0.385701,-0.8648 0.8648,-0.8648 z M 1.3175173,41.272167 H 9.634752 c 0.751287,0 1.356114,0.604827 1.356114,1.356114 v 8.425828 c 0,0.751287 -0.604827,1.356114 -1.356114,1.356114 H 1.3175173 c -0.75128693,0 -1.35611357,-0.604827 -1.35611357,-1.356114 v -8.425828 c 0,-0.751287 0.60482664,-1.356114 1.35611357,-1.356114 z M 16.905299,26.37627 h 8.317235 c 0.751287,0 1.356114,0.604827 1.356114,1.356114 v 8.425829 c 0,0.751286 -0.604827,1.356113 -1.356114,1.356113 h -8.317235 c -0.751287,0 -1.356113,-0.604827 -1.356113,-1.356113 v -8.425829 c 0,-0.751287 0.604826,-1.356114 1.356113,-1.356114 z m -15.4667589,0 h 8.3172348 c 0.7512871,0 1.3561131,0.604827 1.3561131,1.356114 v 8.425829 c 0,0.751286 -0.604826,1.356113 -1.3561131,1.356113 H 1.4385401 c -0.75128687,0 -1.35611351,-0.604827 -1.35611351,-1.356113 v -8.425829 c 0,-0.751287 0.60482664,-1.356114 1.35611351,-1.356114 z"
           style="fill:url(#linearGradient1025);fill-opacity:1;stroke:none;stroke-width:0.77373;stroke-linecap:round;stroke-opacity:1"
           id="rect847-3-7-5-9" />
      </g>
    </g>
    <text
       xml:space="preserve"
       style="font-style:normal;font-variant:normal;font-weight:normal;font-stretch:normal;font-size:21.3333px;line-height:1.25;font-family:'Work Sans';-inkscape-font-specification:'Work Sans';fill:#2d314d;fill-opacity:1;stroke:#2d314d;stroke-opacity:1"
       x="32.903904"
       y="15.863189"
       id="text98"><tspan
         sodipodi:role="line"
         id="tspan96"
         x="32.903904"
         y="15.863189"
         style="font-size:21.3333px;fill:#2d314d;fill-opacity:1;stroke:#2d314d;stroke-opacity:1">String2Qr</tspan></text>
  </g>
</svg>
